<svg width="28" height="30" viewBox="0 0 28 30" fill="none" xmlns="http://www.w3.org/2000/svg">
<path d="M29.6321 13.1161L28.3683 14.3886L16.2146 2.15234L17.4784 0.879844L16.6007 -0.00390625L6.32409 10.3436L7.20179 11.2273L8.41343 10.0073L14.0421 15.6748L0.777344 29.0323L1.65504 29.9161L14.9198 16.5598L20.5659 22.2448L19.3542 23.4648L20.2319 24.3486L30.5085 14.0011L29.6309 13.1173L29.6321 13.1161ZM24.6676 12.4298L18.6218 18.5173L12.0744 11.9248L18.1202 5.83734L24.6676 12.4298ZM15.3369 3.03609L17.2413 4.95359L11.1955 11.0411L9.29113 9.12359L15.3369 3.03609ZM19.4982 19.4011L25.544 13.3136L27.4894 15.2723L21.4436 21.3598L19.4982 19.4011Z" fill="#052440"/>
</svg>
