<svg width="24" height="24" viewBox="0 0 24 24" fill="none" xmlns="http://www.w3.org/2000/svg">
<g clip-path="url(#clip0_25_7642)">
<path d="M20.5 0H3.5C1.57 0 0 1.57 0 3.5V16.5C0 18.43 1.57 20 3.5 20H7.105L11.003 23.284C11.288 23.537 11.648 23.663 12.004 23.663C12.356 23.663 12.706 23.54 12.982 23.295L16.967 20H20.499C22.429 20 23.999 18.43 23.999 16.5V3.5C23.999 1.57 22.43 0 20.5 0ZM23 16.5C23 17.878 21.879 19 20.5 19H16.788C16.672 19 16.559 19.041 16.47 19.115L12.332 22.536C12.143 22.704 11.858 22.705 11.658 22.528L7.61 19.118C7.52 19.042 7.406 19 7.288 19H3.5C2.121 19 1 17.878 1 16.5V3.5C1 2.122 2.121 1 3.5 1H20.5C21.879 1 23 2.122 23 3.5V16.5ZM13.732 4.732L7.025 11.439C6.374 12.09 6 12.993 6 13.914V15.5C6 15.776 6.224 16 6.5 16H8.086C9.022 16 9.9 15.636 10.561 14.975L17.268 8.268C17.741 7.796 18 7.168 18 6.5C18 5.832 17.74 5.204 17.268 4.732C16.293 3.757 14.706 3.757 13.732 4.732ZM16.56 7.56L9.853 14.267C9.381 14.739 8.753 14.999 8.085 14.999H6.999V13.913C6.999 13.255 7.266 12.611 7.731 12.145L14.438 5.438C15.022 4.853 15.975 4.853 16.559 5.438C16.842 5.721 16.998 6.098 16.998 6.499C16.998 6.9 16.843 7.276 16.56 7.56Z" fill="#052440"/>
</g>
<defs>
<clipPath id="clip0_25_7642">
<rect width="24" height="24" fill="white"/>
</clipPath>
</defs>
</svg>
