<svg width="24" height="24" viewBox="0 0 24 24" fill="none" xmlns="http://www.w3.org/2000/svg">
<path d="M19.5 4H17.972C17.722 1.753 15.812 0 13.5 0H4.5C2.019 0 0 2.019 0 4.5V18.354C0 18.962 0.333 19.52 0.87 19.807C1.115 19.938 1.382 20.002 1.649 20.002C1.968 20.002 2.286 19.909 2.562 19.726L6.086 17.376C6.495 19.439 8.319 20.999 10.5 20.999H17.349L21.439 23.726C21.714 23.91 22.033 24.002 22.352 24.002C22.619 24.002 22.886 23.938 23.13 23.807C23.667 23.519 24 22.962 24 22.354V8.5C24 6.019 21.981 4 19.5 4ZM2.007 18.895C1.805 19.031 1.556 19.042 1.342 18.926C1.128 18.812 1 18.598 1 18.355V4.5C1 2.57 2.57 1 4.5 1H13.5C15.43 1 17 2.57 17 4.5V12.5C17 14.43 15.43 16 13.5 16H6.5C6.325 16 6.222 16.084 6.218 16.087L2.007 18.894V18.895ZM23 22.355C23 22.598 22.872 22.812 22.658 22.926C22.441 23.042 22.196 23.029 21.992 22.895L17.777 20.084C17.695 20.029 17.598 20 17.5 20H10.5C8.74 20 7.279 18.694 7.036 17H13.5C15.981 17 18 14.981 18 12.5V5H19.5C21.43 5 23 6.57 23 8.5V22.355ZM6.01 5.4C6.331 3.818 7.912 2.759 9.54 3.047C10.748 3.258 11.741 4.25 11.953 5.46C12.177 6.733 11.572 8.007 10.447 8.628C9.73 9.023 9.5 9.295 9.5 9.749C9.5 10.025 9.276 10.249 9 10.249C8.724 10.249 8.5 10.025 8.5 9.749C8.5 8.558 9.453 8.034 9.964 7.752C10.726 7.332 11.12 6.5 10.967 5.633C10.826 4.83 10.169 4.172 9.367 4.031C8.266 3.839 7.204 4.543 6.99 5.598C6.935 5.869 6.672 6.044 6.4 5.989C6.129 5.933 5.955 5.67 6.009 5.399L6.01 5.4ZM10 13C10 13.552 9.552 14 9 14C8.448 14 8 13.552 8 13C8 12.448 8.448 12 9 12C9.552 12 10 12.448 10 13Z" fill="#052440"/>
</svg>
