<svg width="24" height="24" viewBox="0 0 24 24" fill="none" xmlns="http://www.w3.org/2000/svg">
<path d="M14 1V0C19.514 0 24 4.486 24 10H23C23 5.038 18.962 1 14 1ZM19 10H20C20 6.691 17.309 4 14 4V5C16.757 5 19 7.243 19 10ZM17.527 13.837L23.206 19.516L20.327 22.395C19.294 23.43 17.895 24 16.386 24C9.189 24 0 14.812 0 7.613C0 6.104 0.57 4.705 1.605 3.672L4.484 0.793L10.163 6.472L6.79 9.845C8.296 13.404 10.709 15.819 14.15 17.214L17.527 13.837ZM21.792 19.516L17.527 15.251L14.397 18.382L14.094 18.266C10.174 16.77 7.362 13.96 5.737 9.914L5.614 9.607L8.749 6.472L4.484 2.207L2.312 4.379C1.466 5.223 1 6.372 1 7.613C1 14.228 9.772 23 16.387 23C17.628 23 18.776 22.534 19.62 21.688L21.792 19.516Z" fill="#052440"/>
</svg>
