<svg width="24" height="22" viewBox="0 0 24 22" fill="none" xmlns="http://www.w3.org/2000/svg">
<path d="M21.5 2H12.118L8.118 0H2.5C1.122 0 0 1.121 0 2.5V22H8.346L7.346 21H1V7H23V21H16.635L15.635 22H24V4.5C24 3.121 22.879 2 21.5 2ZM1 6V2.5C1 1.673 1.673 1 2.5 1H7.882L11.882 3H21.5C22.327 3 23 3.673 23 4.5V6H1ZM16.596 18.22L13.394 21.423C13.01 21.807 12.505 21.999 12 21.999C11.495 21.999 10.991 21.807 10.606 21.423L7.403 18.22L8.11 17.513L11.313 20.716C11.37 20.773 11.433 20.822 11.5 20.862V11H12.5V20.862C12.566 20.822 12.629 20.774 12.687 20.716L15.889 17.513L16.596 18.22Z" fill="#052440"/>
</svg>
