<svg width="24" height="24" viewBox="0 0 24 24" fill="none" xmlns="http://www.w3.org/2000/svg">
<g clip-path="url(#clip0_25_7667)">
<path d="M12 0C5.383 0 0 5.383 0 12C0 18.617 5.383 24 12 24H24V12C24 5.383 18.617 0 12 0ZM23 23H12C5.935 23 1 18.065 1 12C1 5.935 5.935 1 12 1C18.065 1 23 5.935 23 12V23ZM13 12C13 12.552 12.552 13 12 13C11.448 13 11 12.552 11 12C11 11.448 11.448 11 12 11C12.552 11 13 11.448 13 12ZM18 12C18 12.552 17.552 13 17 13C16.448 13 16 12.552 16 12C16 11.448 16.448 11 17 11C17.552 11 18 11.448 18 12ZM8 12C8 12.552 7.552 13 7 13C6.448 13 6 12.552 6 12C6 11.448 6.448 11 7 11C7.552 11 8 11.448 8 12Z" fill="#052440"/>
</g>
<defs>
<clipPath id="clip0_25_7667">
<rect width="24" height="24" fill="white"/>
</clipPath>
</defs>
</svg>
