<svg width="24" height="24" viewBox="0 0 24 24" fill="none" xmlns="http://www.w3.org/2000/svg">
<path d="M13 10C13 10.552 12.552 11 12 11C11.448 11 11 10.552 11 10C11 9.448 11.448 9 12 9C12.552 9 13 9.448 13 10ZM17 9C16.448 9 16 9.448 16 10C16 10.552 16.448 11 17 11C17.552 11 18 10.552 18 10C18 9.448 17.552 9 17 9ZM7 9C6.448 9 6 9.448 6 10C6 10.552 6.448 11 7 11C7.552 11 8 10.552 8 10C8 9.448 7.552 9 7 9ZM24 2.5V20H16.968L12.983 23.295C12.708 23.54 12.357 23.663 12.005 23.663C11.649 23.663 11.289 23.537 11.004 23.284L7.106 20H0V2.5C0 1.122 1.121 0 2.5 0H21.5C22.879 0 24 1.122 24 2.5ZM23 2.5C23 1.673 22.327 1 21.5 1H2.5C1.673 1 1 1.673 1 2.5V19H7.471L11.659 22.527C11.858 22.705 12.144 22.703 12.333 22.535L16.609 18.999H23.001L23 2.5Z" fill="#052440"/>
</svg>
