<svg width="24" height="24" viewBox="0 0 24 24" fill="none" xmlns="http://www.w3.org/2000/svg">
<g clip-path="url(#clip0_25_7494)">
<path d="M19.5 2H4.5C2.02 2 0 4.02 0 6.5V17.5C0 19.98 2.02 22 4.5 22H19.5C21.98 22 24 19.98 24 17.5V6.5C24 4.02 21.98 2 19.5 2ZM4.5 3H19.5C21.43 3 23 4.57 23 6.5V7H1V6.5C1 4.57 2.57 3 4.5 3ZM19.5 21H4.5C2.57 21 1 19.43 1 17.5V8H23V17.5C23 19.43 21.43 21 19.5 21ZM11 11.5C11 11.78 10.78 12 10.5 12H8V17.5C8 17.78 7.78 18 7.5 18C7.22 18 7 17.78 7 17.5V12H4.5C4.22 12 4 11.78 4 11.5C4 11.22 4.22 11 4.5 11H10.5C10.78 11 11 11.22 11 11.5ZM20 11.5C20 11.78 19.78 12 19.5 12H13.5C13.22 12 13 11.78 13 11.5C13 11.22 13.22 11 13.5 11H19.5C19.78 11 20 11.22 20 11.5ZM20 15.5C20 15.78 19.78 16 19.5 16H13.5C13.22 16 13 15.78 13 15.5C13 15.22 13.22 15 13.5 15H19.5C19.78 15 20 15.22 20 15.5Z" fill="#052440"/>
</g>
<defs>
<clipPath id="clip0_25_7494">
<rect width="24" height="24" fill="white"/>
</clipPath>
</defs>
</svg>
