<svg width="24" height="24" viewBox="0 0 24 24" fill="none" xmlns="http://www.w3.org/2000/svg">
<path d="M20.9914 12C20.9914 11.309 20.9074 10.61 20.7414 9.918L23.6654 8.263L21.2014 3.911L18.2744 5.568C17.2114 4.528 15.9164 3.773 14.4914 3.361V0H9.49141V3.361C8.06641 3.773 6.77141 4.528 5.70741 5.568L2.78041 3.911L0.317406 8.263L3.24041 9.918C3.07441 10.61 2.99041 11.309 2.99041 12C2.99041 12.691 3.07441 13.391 3.24041 14.082L0.316406 15.737L2.77941 20.088L5.70641 18.431C6.77041 19.472 8.06541 20.227 9.49041 20.639V24H14.4904V20.639C15.9154 20.227 17.2104 19.472 18.2744 18.431L21.2014 20.088L23.6654 15.737L20.7414 14.082C20.9074 13.39 20.9914 12.691 20.9914 12ZM22.3024 16.114L20.8234 18.724L18.0904 17.177L17.8214 17.464C16.7524 18.605 15.3864 19.401 13.8734 19.767L13.4914 19.86V23H10.4914V19.86L10.1094 19.767C8.59541 19.401 7.23041 18.605 6.16041 17.464L5.89141 17.177L3.15841 18.724L1.68041 16.114L4.41041 14.568L4.30241 14.19C4.09541 13.464 3.99041 12.728 3.99041 12C3.99041 11.272 4.09541 10.537 4.30241 9.81L4.40941 9.432L1.67941 7.886L3.15841 5.275L5.89141 6.823L6.16041 6.536C7.22941 5.395 8.59541 4.599 10.1094 4.233L10.4914 4.14V1H13.4914V4.14L13.8734 4.233C15.3874 4.599 16.7524 5.395 17.8214 6.536L18.0904 6.823L20.8234 5.275L22.3014 7.886L19.5714 9.432L19.6784 9.81C19.8854 10.538 19.9904 11.274 19.9904 12C19.9904 12.726 19.8854 13.463 19.6784 14.19L19.5714 14.568L22.3014 16.114H22.3024ZM8.49841 12.071V7H7.49841V12.071C6.63841 12.295 5.99841 13.071 5.99841 14C5.99841 14.929 6.63841 15.705 7.49841 15.929V17H8.49841V15.929C9.35841 15.705 9.99841 14.929 9.99841 14C9.99841 13.071 9.35841 12.295 8.49841 12.071ZM7.99841 15C7.44741 15 6.99841 14.552 6.99841 14C6.99841 13.448 7.44741 13 7.99841 13C8.54941 13 8.99841 13.448 8.99841 14C8.99841 14.552 8.54941 15 7.99841 15ZM16.4984 12.071V7H15.4984V12.071C14.6384 12.295 13.9984 13.071 13.9984 14C13.9984 14.929 14.6384 15.705 15.4984 15.929V17H16.4984V15.929C17.3584 15.705 17.9984 14.929 17.9984 14C17.9984 13.071 17.3584 12.295 16.4984 12.071ZM15.9984 15C15.4474 15 14.9984 14.552 14.9984 14C14.9984 13.448 15.4474 13 15.9984 13C16.5494 13 16.9984 13.448 16.9984 14C16.9984 14.552 16.5494 15 15.9984 15ZM12.4984 8.071V7H11.4984V8.071C10.6384 8.295 9.99841 9.071 9.99841 10C9.99841 10.929 10.6384 11.705 11.4984 11.929V17H12.4984V11.929C13.3584 11.705 13.9984 10.929 13.9984 10C13.9984 9.071 13.3584 8.295 12.4984 8.071ZM11.9984 11C11.4474 11 10.9984 10.552 10.9984 10C10.9984 9.448 11.4474 9 11.9984 9C12.5494 9 12.9984 9.448 12.9984 10C12.9984 10.552 12.5494 11 11.9984 11Z" fill="#052440"/>
</svg>
