<svg width="35" height="35" viewBox="0 0 35 35" fill="none" xmlns="http://www.w3.org/2000/svg">
<path d="M24.4334 17.4961C24.4334 21.2931 21.3723 24.3711 17.5963 24.3711C13.8204 24.3711 10.7593 21.2931 10.7593 17.4961C10.7593 13.6992 13.8204 10.6211 17.5963 10.6211C21.3723 10.6211 24.4334 13.6992 24.4334 17.4961ZM24.4334 17.4961C24.4334 21.2946 25.8008 24.3711 29.2193 24.3711C32.6378 24.3711 34.0052 21.2946 34.0052 17.4961C34.0043 13.8199 32.7826 10.2493 30.5338 7.35079C28.2851 4.45229 25.1381 2.39197 21.5923 1.49673C18.0464 0.601498 14.3048 0.922629 10.9611 2.40917C7.61747 3.89571 4.86326 6.46252 3.13552 9.7023C1.40779 12.9421 0.805499 16.6693 1.42422 20.2924C2.04294 23.9156 3.84724 27.2273 6.55081 29.7019C9.25437 32.1765 12.7024 33.6724 16.3477 33.9521C19.993 34.2319 23.6268 33.2795 26.6725 31.2461M24.4334 17.4961V10.6211" stroke="#F7F7F7" stroke-width="2" stroke-linecap="round" stroke-linejoin="round"/>
</svg>
