<svg width="64" height="65" viewBox="0 0 64 65" fill="none" xmlns="http://www.w3.org/2000/svg">
<path d="M62.6667 29.8333C61.9307 29.8333 61.3333 29.236 61.3333 28.5C61.3333 14.532 49.968 3.16667 36 3.16667C35.264 3.16667 34.6667 2.56933 34.6667 1.83333C34.6667 1.09733 35.264 0.5 36 0.5C51.44 0.5 64 13.06 64 28.5C64 29.236 63.4027 29.8333 62.6667 29.8333ZM53.3333 28.5C53.3333 18.9427 45.5573 11.1667 36 11.1667C35.264 11.1667 34.6667 11.764 34.6667 12.5C34.6667 13.236 35.264 13.8333 36 13.8333C44.088 13.8333 50.6667 20.412 50.6667 28.5C50.6667 29.236 51.264 29.8333 52 29.8333C52.736 29.8333 53.3333 29.236 53.3333 28.5ZM59.2907 59.8893L61.8987 56.8893C63.2533 55.5347 64 53.732 64 51.8173C64 49.9027 63.2533 48.0973 61.768 46.6307L55.2453 41.636C52.4507 38.8413 47.904 38.8387 45.104 41.628L41.0187 45.612C31.2053 41.6147 23.2107 33.612 18.9013 23.4707L22.8693 19.404C25.6667 16.6067 25.6667 12.0547 22.984 9.388L17.76 2.60667C15.048 -0.105333 10.2587 -0.0413334 7.68 2.54533L4.54933 5.276C1.61333 8.196 0 12.1613 0 16.436C0 37.1 27.4 64.5 48.064 64.5C52.3387 64.5 56.3013 62.8867 59.2907 59.8893ZM15.7573 4.356L20.9813 11.1373C22.7387 12.8947 22.7387 15.756 20.9707 17.5267L16.3787 22.236C16.0107 22.6147 15.8987 23.1747 16.096 23.6653C20.7067 35.1453 29.7307 44.1667 40.8587 48.412C41.344 48.5987 41.8933 48.484 42.264 48.124L46.9733 43.532C46.9733 43.532 46.9813 43.524 46.984 43.5187C48.688 41.812 51.528 41.7027 53.4907 43.6333L60.0133 48.628C61.7707 50.3853 61.7707 53.244 59.952 55.0707L57.3413 58.0707C54.92 60.4973 51.624 61.8333 48.064 61.8333C28.9707 61.8333 2.66667 35.5293 2.66667 16.436C2.66667 12.876 4.00267 9.58 6.36533 7.22L9.49867 4.48667C10.3947 3.59067 11.576 3.15333 12.7387 3.15333C13.856 3.15333 14.9547 3.55867 15.76 4.35867L15.7573 4.356Z" fill="white"/>
</svg>
