<svg width="32" height="32" viewBox="0 0 32 32" fill="none" xmlns="http://www.w3.org/2000/svg">
<rect width="32" height="32" rx="16" fill="#052440"/>
<path d="M18.5804 17.0798C18.5804 18.5027 17.4229 19.6603 16 19.6603C14.5771 19.6603 13.42 18.5027 13.42 17.0798C13.42 15.6569 14.5771 14.4994 16 14.4994C17.4229 14.4994 18.5804 15.6574 18.5804 17.0798ZM24 13.4158V20.7448C24 21.7219 23.2078 22.514 22.2308 22.514H9.76923C8.79217 22.514 8 21.7219 8 20.7448V13.4158C8 12.4387 8.79217 11.6466 9.76923 11.6466H11.9454V11.0344C11.9454 10.1794 12.638 9.48633 13.4934 9.48633H18.5066C19.362 9.48633 20.0546 10.1794 20.0546 11.0344V11.6461H22.2308C23.2078 11.6466 24 12.4387 24 13.4158ZM19.9073 17.0798C19.9073 14.9254 18.1545 13.1725 16 13.1725C13.846 13.1725 12.0931 14.9254 12.0931 17.0798C12.0931 19.2343 13.846 20.9872 16 20.9872C18.1545 20.9872 19.9073 19.2343 19.9073 17.0798Z" fill="white"/>
</svg>
