<svg width="20" height="20" viewBox="0 0 20 20" fill="none" xmlns="http://www.w3.org/2000/svg">
<path d="M16.25 3.33333H14.9767C14.7683 1.46083 13.1767 0 11.25 0H3.75C1.6825 0 0 1.6825 0 3.75V15.295C0 15.8017 0.2775 16.2667 0.725 16.5058C0.929167 16.615 1.15167 16.6683 1.37417 16.6683C1.64 16.6683 1.905 16.5908 2.135 16.4383L5.07167 14.48C5.4125 16.1992 6.9325 17.4992 8.75 17.4992H14.4575L17.8658 19.7717C18.095 19.925 18.3608 20.0017 18.6267 20.0017C18.8492 20.0017 19.0717 19.9483 19.275 19.8392C19.7225 19.5992 20 19.135 20 18.6283V7.08333C20 5.01583 18.3175 3.33333 16.25 3.33333ZM1.6725 15.7458C1.50417 15.8592 1.29667 15.8683 1.11833 15.7717C0.94 15.6767 0.833333 15.4983 0.833333 15.2958V3.75C0.833333 2.14167 2.14167 0.833333 3.75 0.833333H11.25C12.8583 0.833333 14.1667 2.14167 14.1667 3.75V10.4167C14.1667 12.025 12.8583 13.3333 11.25 13.3333H5.41667C5.27083 13.3333 5.185 13.4033 5.18167 13.4058L1.6725 15.745V15.7458ZM19.1667 18.6292C19.1667 18.8317 19.06 19.01 18.8817 19.105C18.7008 19.2017 18.4967 19.1908 18.3267 19.0792L14.8142 16.7367C14.7458 16.6908 14.665 16.6667 14.5833 16.6667H8.75C7.28333 16.6667 6.06583 15.5783 5.86333 14.1667H11.25C13.3175 14.1667 15 12.4842 15 10.4167V4.16667H16.25C17.8583 4.16667 19.1667 5.475 19.1667 7.08333V18.6292ZM5.00833 4.5C5.27583 3.18167 6.59333 2.29917 7.95 2.53917C8.95667 2.715 9.78417 3.54167 9.96083 4.55C10.1475 5.61083 9.64333 6.6725 8.70583 7.19C8.10833 7.51917 7.91667 7.74583 7.91667 8.12417C7.91667 8.35417 7.73 8.54083 7.5 8.54083C7.27 8.54083 7.08333 8.35417 7.08333 8.12417C7.08333 7.13167 7.8775 6.695 8.30333 6.46C8.93833 6.11 9.26667 5.41667 9.13917 4.69417C9.02167 4.025 8.47417 3.47667 7.80583 3.35917C6.88833 3.19917 6.00333 3.78583 5.825 4.665C5.77917 4.89083 5.56 5.03667 5.33333 4.99083C5.1075 4.94417 4.9625 4.725 5.0075 4.49917L5.00833 4.5ZM8.33333 10.8333C8.33333 11.2933 7.96 11.6667 7.5 11.6667C7.04 11.6667 6.66667 11.2933 6.66667 10.8333C6.66667 10.3733 7.04 10 7.5 10C7.96 10 8.33333 10.3733 8.33333 10.8333Z" fill="#052440"/>
</svg>
