<svg width="58" height="58" viewBox="0 0 58 58" fill="none" xmlns="http://www.w3.org/2000/svg">
<path d="M50.3747 11.3301H7.62469C7.54983 11.3301 7.4757 11.3448 7.40653 11.3734C7.33737 11.4021 7.27453 11.4441 7.22159 11.497C7.16866 11.5499 7.12667 11.6128 7.09804 11.6819C7.0694 11.7511 7.05467 11.8252 7.05469 11.9001V37.5501C7.05467 37.6249 7.0694 37.6991 7.09804 37.7682C7.12667 37.8374 7.16866 37.9002 7.22159 37.9532C7.27453 38.0061 7.33737 38.0481 7.40653 38.0767C7.4757 38.1054 7.54983 38.1201 7.62469 38.1201H9.90469V46.1001C9.90468 46.2128 9.93811 46.323 10.0007 46.4167C10.0634 46.5105 10.1524 46.5835 10.2565 46.6267C10.3607 46.6698 10.4753 46.6811 10.5859 46.6591C10.6964 46.6371 10.798 46.5828 10.8777 46.5031L19.2607 38.1201H50.3747C50.4495 38.1201 50.5237 38.1054 50.5928 38.0767C50.662 38.0481 50.7248 38.0061 50.7778 37.9532C50.8307 37.9002 50.8727 37.8374 50.9013 37.7682C50.93 37.6991 50.9447 37.6249 50.9447 37.5501V11.9001C50.9447 11.8252 50.93 11.7511 50.9013 11.6819C50.8727 11.6128 50.8307 11.5499 50.7778 11.497C50.7248 11.4441 50.662 11.4021 50.5928 11.3734C50.5237 11.3448 50.4495 11.3301 50.3747 11.3301ZM49.8047 36.9801H19.0247C18.8735 36.9801 18.7286 37.0402 18.6217 37.1471L11.0447 44.7241V37.5501C11.0447 37.4752 11.03 37.4011 11.0013 37.3319C10.9727 37.2628 10.9307 37.1999 10.8778 37.147C10.8248 37.094 10.762 37.0521 10.6928 37.0234C10.6237 36.9948 10.5495 36.9801 10.4747 36.9801H8.19469V12.4701H49.8047V36.9801Z" fill="#E2AC6C"/>
<path d="M40.399 22.7305C40.2478 22.7305 40.1028 22.7905 39.9959 22.8974C39.889 23.0043 39.829 23.1493 39.829 23.3005C39.829 23.4516 39.889 23.5966 39.9959 23.7035C40.1028 23.8104 40.2478 23.8705 40.399 23.8705H42.679V24.7255C42.679 24.8766 42.739 25.0216 42.8459 25.1285C42.9528 25.2354 43.0978 25.2955 43.249 25.2955C43.4001 25.2955 43.5451 25.2354 43.652 25.1285C43.7589 25.0216 43.819 24.8766 43.819 24.7255V23.8705H44.674C44.9381 23.8782 45.201 23.8319 45.4465 23.7344C45.6921 23.6369 45.9151 23.4903 46.1019 23.3034C46.2887 23.1166 46.4354 22.8936 46.5329 22.648C46.6304 22.4025 46.6767 22.1396 46.669 21.8755C46.669 20.1335 45.1621 19.9127 43.819 19.8846V18.1705H46.099C46.2501 18.1705 46.3951 18.1104 46.502 18.0035C46.6089 17.8966 46.669 17.7516 46.669 17.6005C46.669 17.4493 46.6089 17.3043 46.502 17.1974C46.3951 17.0905 46.2501 17.0305 46.099 17.0305H43.819V16.1755C43.819 16.0243 43.7589 15.8793 43.652 15.7724C43.5451 15.6655 43.4001 15.6055 43.249 15.6055C43.0978 15.6055 42.9528 15.6655 42.8459 15.7724C42.739 15.8793 42.679 16.0243 42.679 16.1755V17.0305H41.824C41.5599 17.0227 41.297 17.069 41.0514 17.1665C40.8059 17.264 40.5828 17.4107 40.396 17.5975C40.2092 17.7843 40.0625 18.0074 39.965 18.2529C39.8675 18.4985 39.8212 18.7614 39.829 19.0255C39.829 20.7674 41.3358 20.9883 42.679 21.0163V22.7305H40.399ZM43.819 21.0274C45.1908 21.0635 45.529 21.2584 45.529 21.8755C45.5363 21.9897 45.5192 22.1041 45.4789 22.2112C45.4385 22.3182 45.3758 22.4155 45.2949 22.4964C45.214 22.5773 45.1167 22.64 45.0097 22.6804C44.9026 22.7207 44.7881 22.7378 44.674 22.7305H43.819V21.0274ZM40.969 19.0255C40.9616 18.9113 40.9787 18.7968 41.0191 18.6898C41.0594 18.5827 41.1222 18.4855 41.2031 18.4046C41.284 18.3237 41.3812 18.2609 41.4883 18.2206C41.5953 18.1802 41.7098 18.1631 41.824 18.1705H42.679V19.8735C41.3072 19.8374 40.969 19.6425 40.969 19.0255Z" fill="#E2AC6C"/>
<path d="M10.4762 16.7455H37.5513C37.7024 16.7455 37.8474 16.6854 37.9543 16.5785C38.0612 16.4716 38.1213 16.3266 38.1213 16.1755C38.1213 16.0243 38.0612 15.8793 37.9543 15.7724C37.8474 15.6655 37.7024 15.6055 37.5513 15.6055H10.4762C10.3251 15.6055 10.1801 15.6655 10.0732 15.7724C9.9663 15.8793 9.90625 16.0243 9.90625 16.1755C9.90625 16.3266 9.9663 16.4716 10.0732 16.5785C10.1801 16.6854 10.3251 16.7455 10.4762 16.7455Z" fill="#E2AC6C"/>
<path d="M10.4762 19.5951H37.5513C37.7024 19.5951 37.8474 19.535 37.9543 19.4281C38.0612 19.3212 38.1213 19.1763 38.1213 19.0251C38.1213 18.8739 38.0612 18.7289 37.9543 18.622C37.8474 18.5151 37.7024 18.4551 37.5513 18.4551H10.4762C10.3251 18.4551 10.1801 18.5151 10.0732 18.622C9.9663 18.7289 9.90625 18.8739 9.90625 19.0251C9.90625 19.1763 9.9663 19.3212 10.0732 19.4281C10.1801 19.535 10.3251 19.5951 10.4762 19.5951Z" fill="#E2AC6C"/>
<path d="M10.4762 22.4447H37.5513C37.7024 22.4447 37.8474 22.3846 37.9543 22.2777C38.0612 22.1708 38.1213 22.0259 38.1213 21.8747C38.1213 21.7235 38.0612 21.5785 37.9543 21.4716C37.8474 21.3647 37.7024 21.3047 37.5513 21.3047H10.4762C10.3251 21.3047 10.1801 21.3647 10.0732 21.4716C9.9663 21.5785 9.90625 21.7235 9.90625 21.8747C9.90625 22.0259 9.9663 22.1708 10.0732 22.2777C10.1801 22.3846 10.3251 22.4447 10.4762 22.4447Z" fill="#E2AC6C"/>
<path d="M10.4762 25.2943H37.5513C37.7024 25.2943 37.8474 25.2342 37.9543 25.1273C38.0612 25.0205 38.1213 24.8755 38.1213 24.7243C38.1213 24.5731 38.0612 24.4281 37.9543 24.3212C37.8474 24.2143 37.7024 24.1543 37.5513 24.1543H10.4762C10.3251 24.1543 10.1801 24.2143 10.0732 24.3212C9.9663 24.4281 9.90625 24.5731 9.90625 24.7243C9.90625 24.8755 9.9663 25.0205 10.0732 25.1273C10.1801 25.2342 10.3251 25.2943 10.4762 25.2943Z" fill="#E2AC6C"/>
<path d="M10.4762 28.1459H47.5262C47.6774 28.1459 47.8224 28.0858 47.9293 27.9789C48.0362 27.872 48.0962 27.727 48.0962 27.5759C48.0962 27.4247 48.0362 27.2797 47.9293 27.1728C47.8224 27.0659 47.6774 27.0059 47.5262 27.0059H10.4762C10.3251 27.0059 10.1801 27.0659 10.0732 27.1728C9.9663 27.2797 9.90625 27.4247 9.90625 27.5759C9.90625 27.727 9.9663 27.872 10.0732 27.9789C10.1801 28.0858 10.3251 28.1459 10.4762 28.1459Z" fill="#E2AC6C"/>
<path d="M10.4762 30.9955H47.5262C47.6774 30.9955 47.8224 30.9354 47.9293 30.8285C48.0362 30.7216 48.0962 30.5766 48.0962 30.4255C48.0962 30.2743 48.0362 30.1293 47.9293 30.0224C47.8224 29.9155 47.6774 29.8555 47.5262 29.8555H10.4762C10.3251 29.8555 10.1801 29.9155 10.0732 30.0224C9.9663 30.1293 9.90625 30.2743 9.90625 30.4255C9.90625 30.5766 9.9663 30.7216 10.0732 30.8285C10.1801 30.9354 10.3251 30.9955 10.4762 30.9955Z" fill="#E2AC6C"/>
<path d="M10.4762 33.8451H47.5262C47.6774 33.8451 47.8224 33.785 47.9293 33.6781C48.0362 33.5712 48.0962 33.4263 48.0962 33.2751C48.0962 33.1239 48.0362 32.9789 47.9293 32.872C47.8224 32.7651 47.6774 32.7051 47.5262 32.7051H10.4762C10.3251 32.7051 10.1801 32.7651 10.0732 32.872C9.9663 32.9789 9.90625 33.1239 9.90625 33.2751C9.90625 33.4263 9.9663 33.5712 10.0732 33.6781C10.1801 33.785 10.3251 33.8451 10.4762 33.8451Z" fill="#E2AC6C"/>
</svg>
