<svg width="58" height="57" viewBox="0 0 58 57" fill="none" xmlns="http://www.w3.org/2000/svg">
<g clip-path="url(#clip0_27_39922)">
<path d="M52.304 39.2609L49.1802 38.6908C46.8996 38.2813 45.2373 36.3702 45.0848 34.0897C46.9398 32.4516 48.1845 29.9945 48.3932 27.1921C50.2563 22.1895 51.0754 16.2234 47.9676 14.0875C46.8113 11.6946 43.7758 10.2412 40.114 10.3938C36.6449 10.5222 32.0516 12.3049 30.4937 16.8899C30.4857 16.922 30.4776 16.9541 30.4696 16.9943C29.9155 19.7967 30.1163 23.0327 31.112 27.1761C31.1201 27.2082 31.1361 27.2403 31.1522 27.2724C31.369 30.0427 32.6137 32.4757 34.4526 34.0978C34.3081 36.3782 32.6378 38.2893 30.3572 38.6988L27.2414 39.269C24.0855 39.8391 21.7969 42.5772 21.7969 45.7731V55.9469C21.7969 56.3885 22.1582 56.7499 22.5999 56.7499H56.9455C57.3872 56.7499 57.7486 56.3885 57.7486 55.9469V45.7651C57.7486 42.5692 55.4599 39.831 52.304 39.2609ZM47.6223 15.9504C48.3611 16.914 48.5699 18.5039 48.4093 20.3668C48.1523 19.1543 47.6464 18.0943 46.747 17.2914C47.0843 16.8658 47.3734 16.4161 47.6223 15.9504ZM32.0355 17.3476C33.3445 13.5736 37.2311 12.1041 40.1782 11.9917C43.0852 11.8873 45.5425 12.9392 46.466 14.6496C45.0205 18.2389 40.0979 20.8325 34.3563 18.8813C34.0752 18.7929 33.7701 18.8491 33.5532 19.0499C33.3364 19.2506 33.2481 19.5558 33.3204 19.8368C33.6335 21.0493 33.0554 22.7516 32.2122 24.5583C31.6902 21.7318 31.634 19.3952 32.0355 17.3476ZM32.7502 27.0717C33.9226 24.8153 34.9425 22.6312 35.0067 20.7522C39.3351 21.8362 43.1816 20.6559 45.6469 18.4637C47.2931 19.9332 47.1405 22.9122 46.8836 26.1081C46.8514 26.1964 46.8273 26.2928 46.8273 26.3891C46.8273 30.8939 43.6634 34.5635 39.7767 34.5635C36.0828 34.5635 33.0554 31.2552 32.7502 27.0717ZM35.9382 35.1416C37.0946 35.792 38.3955 36.1614 39.7687 36.1614C41.1419 36.1614 42.4428 35.784 43.5992 35.1416C43.9123 36.595 44.6913 37.8878 45.8075 38.8273C44.1211 40.2165 42.0252 40.9793 39.8089 40.9793H39.8008C37.5684 40.9793 35.4564 40.2084 33.762 38.8032C34.8622 37.8637 35.6331 36.587 35.9382 35.1416ZM35.8178 55.1439H23.4029V45.7651C23.4029 43.3401 25.1375 41.2684 27.5305 40.8428L30.6463 40.2727C31.2646 40.1603 31.8428 39.9676 32.3808 39.7026C33.762 40.9552 35.4082 41.8224 37.191 42.256L35.8178 55.1439ZM37.4319 55.1439L38.781 42.5291C39.1182 42.5612 39.4635 42.5772 39.8089 42.5772H39.8249C40.1461 42.5772 40.4593 42.5612 40.7725 42.5291L42.1135 55.1439H37.4319ZM56.1425 55.1439H43.7276L42.3545 42.2801C44.1532 41.8626 45.8155 40.9873 47.2048 39.7267C47.7267 39.9756 48.2969 40.1683 48.8911 40.2727L52.0149 40.8428C54.3999 41.2764 56.1345 43.3481 56.1345 45.7651V55.1439H56.1425Z" fill="#E2AC6C"/>
<path d="M23.6533 21.6821C23.8059 21.7303 23.9585 21.7544 24.1111 21.7544C24.4323 21.7544 24.7455 21.65 25.0105 21.4573C25.412 21.1682 25.6449 20.7025 25.6449 20.2046V5.30128C25.6449 4.81146 25.4039 4.34573 25.0105 4.04863C24.6089 3.75956 24.1191 3.67123 23.6533 3.8238C22.3364 4.24135 21.3727 5.29325 21.0435 6.58605C17.1568 5.64656 13.238 5.64656 9.35136 6.58605C9.02212 5.29325 8.05849 4.24135 6.74152 3.8238C6.27576 3.67926 5.78591 3.75956 5.38439 4.04863C4.99091 4.33771 4.75 4.80343 4.75 5.30128V20.2046C4.75 20.6944 4.99091 21.1602 5.38439 21.4573C5.64939 21.65 5.96258 21.7544 6.28379 21.7544C6.43636 21.7544 6.58894 21.7303 6.74152 21.6821C8.05849 21.2645 9.02212 20.2046 9.35136 18.9198C10.3792 19.1688 11.4152 19.3535 12.4511 19.4659C11.7685 23.6655 11.3188 29.6718 11.3188 34.7707C11.3188 43.3305 12.5474 47.3213 15.1894 47.3213C17.8314 47.3213 19.068 43.3305 19.068 34.7707C19.068 29.6718 18.6183 23.6655 17.9358 19.4659C18.9717 19.3454 20.0076 19.1688 21.0355 18.9198C21.3727 20.2046 22.3364 21.2645 23.6533 21.6821ZM22.513 7.57372C22.513 6.56196 23.1555 5.67065 24.0388 5.34946V20.1083C23.1233 19.771 22.513 18.9038 22.513 17.9161V7.57372ZM7.88182 17.9241C7.88182 18.9359 7.23939 19.8272 6.35606 20.1484V5.38961C7.27152 5.72686 7.88182 6.59408 7.88182 7.57372V17.9241ZM15.1974 45.7153C14.82 45.7153 12.9489 45.1854 12.9329 34.8831C13.6556 35.0437 14.4265 35.132 15.1974 35.132C15.9683 35.132 16.7392 35.0437 17.462 34.8831C17.4539 45.1854 15.5749 45.7153 15.1974 45.7153ZM15.1974 31.4785C15.9442 31.4785 16.6911 31.3982 17.3977 31.2376C17.4218 31.9121 17.4379 32.5705 17.4539 33.229C16.0567 33.6064 14.3462 33.6064 12.9489 33.229C12.957 32.5705 12.9811 31.904 13.0052 31.2376C13.7038 31.3982 14.4506 31.4785 15.1974 31.4785ZM13.0694 29.6155C13.2541 25.9941 13.6074 22.3727 14.0652 19.5943C14.4426 19.6104 14.82 19.6345 15.2055 19.6345C15.5909 19.6345 15.9603 19.6104 16.3458 19.5943C16.8035 22.3727 17.1568 25.9941 17.3415 29.6155C15.9924 29.9528 14.4024 29.9528 13.0694 29.6155ZM20.907 17.3058C17.1167 18.2614 13.2782 18.2614 9.48788 17.3058V8.19201C13.2782 7.23647 17.1167 7.23647 20.907 8.19201V17.3058Z" fill="#E2AC6C"/>
</g>
<defs>
<clipPath id="clip0_27_39922">
<rect width="57" height="57" fill="white" transform="translate(0.5)"/>
</clipPath>
</defs>
</svg>
