<svg width="30" height="30" viewBox="0 0 30 30" fill="none" xmlns="http://www.w3.org/2000/svg">
<path d="M15 30C23.2843 30 30 23.2843 30 15C30 6.71573 23.2843 0 15 0C6.71574 0 0 6.71573 0 15C0 23.2843 6.71574 30 15 30Z" fill="white"/>
<mask id="mask0_21_10531" style="mask-type:luminance" maskUnits="userSpaceOnUse" x="5" y="4" width="20" height="21">
<path d="M24.5761 13.0397H15.2296V16.9151H20.6095C20.108 19.3771 18.0108 20.7905 15.2296 20.7905C11.9469 20.7905 9.30256 18.1461 9.30256 14.8634C9.30256 11.5807 11.9469 8.93635 15.2296 8.93635C16.643 8.93635 17.9196 9.43788 18.9226 10.2585L21.8405 7.34061C20.0624 5.79045 17.7828 4.83301 15.2296 4.83301C9.6673 4.83301 5.19922 9.30109 5.19922 14.8634C5.19922 20.4257 9.6673 24.8938 15.2296 24.8938C20.2448 24.8938 24.8041 21.2464 24.8041 14.8634C24.8041 14.2707 24.7129 13.6324 24.5761 13.0397Z" fill="white"/>
</mask>
<g mask="url(#mask0_21_10531)">
<path d="M4.28906 20.7906V8.93652L12.0398 14.8636L4.28906 20.7906Z" fill="#FBBC05"/>
</g>
<mask id="mask1_21_10531" style="mask-type:luminance" maskUnits="userSpaceOnUse" x="5" y="4" width="20" height="21">
<path d="M24.5761 13.0397H15.2296V16.9151H20.6095C20.108 19.3771 18.0108 20.7905 15.2296 20.7905C11.9469 20.7905 9.30256 18.1461 9.30256 14.8634C9.30256 11.5807 11.9469 8.93635 15.2296 8.93635C16.643 8.93635 17.9196 9.43788 18.9226 10.2585L21.8405 7.34061C20.0624 5.79045 17.7828 4.83301 15.2296 4.83301C9.6673 4.83301 5.19922 9.30109 5.19922 14.8634C5.19922 20.4257 9.6673 24.8938 15.2296 24.8938C20.2448 24.8938 24.8041 21.2464 24.8041 14.8634C24.8041 14.2707 24.7129 13.6324 24.5761 13.0397Z" fill="white"/>
</mask>
<g mask="url(#mask1_21_10531)">
<path d="M4.28906 8.93609L12.0398 14.8631L15.2313 12.082L26.1735 10.3039V3.9209H4.28906V8.93609Z" fill="#EA4335"/>
</g>
<mask id="mask2_21_10531" style="mask-type:luminance" maskUnits="userSpaceOnUse" x="5" y="4" width="20" height="21">
<path d="M24.5761 13.0397H15.2296V16.9151H20.6095C20.108 19.3771 18.0108 20.7905 15.2296 20.7905C11.9469 20.7905 9.30256 18.1461 9.30256 14.8634C9.30256 11.5807 11.9469 8.93635 15.2296 8.93635C16.643 8.93635 17.9196 9.43788 18.9226 10.2585L21.8405 7.34061C20.0624 5.79045 17.7828 4.83301 15.2296 4.83301C9.6673 4.83301 5.19922 9.30109 5.19922 14.8634C5.19922 20.4257 9.6673 24.8938 15.2296 24.8938C20.2448 24.8938 24.8041 21.2464 24.8041 14.8634C24.8041 14.2707 24.7129 13.6324 24.5761 13.0397Z" fill="white"/>
</mask>
<g mask="url(#mask2_21_10531)">
<path d="M4.28906 20.7902L17.9669 10.3039L21.5687 10.7598L26.1735 3.9209V25.8054H4.28906V20.7902Z" fill="#34A853"/>
</g>
<mask id="mask3_21_10531" style="mask-type:luminance" maskUnits="userSpaceOnUse" x="5" y="4" width="20" height="21">
<path d="M24.5761 13.0397H15.2296V16.9151H20.6095C20.108 19.3771 18.0108 20.7905 15.2296 20.7905C11.9469 20.7905 9.30256 18.1461 9.30256 14.8634C9.30256 11.5807 11.9469 8.93635 15.2296 8.93635C16.643 8.93635 17.9196 9.43788 18.9226 10.2585L21.8405 7.34061C20.0624 5.79045 17.7828 4.83301 15.2296 4.83301C9.6673 4.83301 5.19922 9.30109 5.19922 14.8634C5.19922 20.4257 9.6673 24.8938 15.2296 24.8938C20.2448 24.8938 24.8041 21.2464 24.8041 14.8634C24.8041 14.2707 24.7129 13.6324 24.5761 13.0397Z" fill="white"/>
</mask>
<g mask="url(#mask3_21_10531)">
<path d="M26.1723 25.8058L12.0386 14.8636L10.2148 13.4958L26.1723 8.93652V25.8058Z" fill="#4285F4"/>
</g>
</svg>
