<svg width="58" height="57" viewBox="0 0 58 57" fill="none" xmlns="http://www.w3.org/2000/svg">
<path d="M42.8088 30.445C43.3487 29.4925 43.3963 28.6406 43.3963 27.847C43.3963 24.2433 40.1034 21.3121 36.0559 21.3121C35.298 21.3114 34.5437 21.4167 33.8149 21.6247V21.114C33.8141 20.3832 33.5234 19.6825 33.0065 19.1657C32.4897 18.6489 31.789 18.3582 31.0582 18.3574H18.0183C17.2875 18.3582 16.5868 18.6489 16.07 19.1657C15.5532 19.6825 15.2625 20.3832 15.2617 21.114V28.6645C15.2625 29.3954 15.5532 30.0961 16.07 30.6128C16.5868 31.1296 17.2875 31.4203 18.0183 31.4211H20.6065V33.4905C20.6065 33.6124 20.6399 33.7321 20.703 33.8364C20.7662 33.9407 20.8567 34.0258 20.9648 34.0823C21.0728 34.1389 21.1943 34.1647 21.3161 34.1571C21.4378 34.1495 21.5551 34.1088 21.6553 34.0392L25.4255 31.4211H29.9143C31.2267 33.2024 33.4887 34.3824 36.0555 34.3824C37.4423 34.3824 39.1695 33.7584 40.018 33.3304C40.9735 33.9072 42.062 34.2267 43.1777 34.2579C43.3523 34.2791 43.5294 34.2505 43.6885 34.1756C43.8476 34.1006 43.9823 33.9823 44.0772 33.8342C44.1721 33.686 44.2232 33.5141 44.2247 33.3383C44.2262 33.1624 44.1781 32.9896 44.0858 32.8399C43.4132 31.7479 42.9352 30.8156 42.8088 30.445ZM25.2168 30.0847C25.0806 30.0847 24.9477 30.1263 24.8358 30.2041L21.9424 32.213V30.7527C21.9424 30.5755 21.872 30.4056 21.7468 30.2804C21.6215 30.1551 21.4516 30.0847 21.2744 30.0847H18.0183C17.6417 30.0843 17.2805 29.9345 17.0142 29.6682C16.7479 29.4018 16.5981 29.0407 16.5977 28.6641V21.1136C16.5981 20.7369 16.7479 20.3758 17.0142 20.1095C17.2805 19.8431 17.6417 19.6933 18.0183 19.6929H31.0582C31.4349 19.6933 31.796 19.8431 32.0624 20.1094C32.3287 20.3758 32.4785 20.7369 32.4789 21.1136V22.1431C30.2358 23.2626 28.7155 25.3993 28.7155 27.847C28.7156 28.6148 28.8663 29.375 29.159 30.0847H25.2168ZM42.1095 32.7701C41.5841 32.6375 41.0828 32.4231 40.624 32.1347C40.4555 32.0301 40.2625 31.9716 40.0642 31.965C39.866 31.9585 39.6695 32.0041 39.4944 32.0974C38.6349 32.5539 37.0759 33.0465 36.0559 33.0465C32.7451 33.0465 30.0514 30.714 30.0514 27.8475C30.0514 24.981 32.7456 22.6485 36.0559 22.6485C39.3663 22.6485 42.0604 24.981 42.0604 27.8475C42.0604 28.7013 41.9836 29.257 41.564 29.925C41.3899 30.2018 41.1771 30.5411 42.5378 32.8588C42.3936 32.8351 42.2509 32.8055 42.1095 32.7701Z" fill="#E2AC6C"/>
<path d="M35.962 23.7034C35.6358 23.6988 35.3118 23.759 35.0091 23.8807C34.7063 24.0024 34.4307 24.183 34.1984 24.4121C33.966 24.6412 33.7815 24.9142 33.6556 25.2152C33.5297 25.5163 33.4648 25.8393 33.4648 26.1656C33.4648 26.3428 33.5352 26.5127 33.6605 26.6379C33.7858 26.7632 33.9557 26.8336 34.1328 26.8336C34.31 26.8336 34.4799 26.7632 34.6051 26.6379C34.7304 26.5127 34.8008 26.3428 34.8008 26.1656C34.8007 26.0163 34.8304 25.8685 34.888 25.7307C34.9456 25.593 35.03 25.4681 35.1364 25.3632C35.2427 25.2584 35.3688 25.1758 35.5074 25.1202C35.6459 25.0645 35.7942 25.037 35.9435 25.0392C36.2249 25.0425 36.495 25.151 36.7005 25.3434C36.9059 25.5358 37.0319 25.7982 37.0537 26.0788C37.0754 26.3595 36.9913 26.6381 36.8178 26.8598C36.6444 27.0816 36.3943 27.2303 36.1167 27.2769C35.8772 27.3162 35.6595 27.4394 35.5025 27.6244C35.3455 27.8094 35.2593 28.0442 35.2595 28.2869V29.2399C35.2595 29.4171 35.3298 29.587 35.4551 29.7123C35.5804 29.8375 35.7503 29.9079 35.9274 29.9079C36.1046 29.9079 36.2745 29.8375 36.3997 29.7123C36.525 29.587 36.5954 29.4171 36.5954 29.2399V28.5372C37.1191 28.3923 37.5797 28.0771 37.9045 27.6415C38.2294 27.2059 38.4 26.6745 38.3896 26.1312C38.3765 25.4915 38.1166 24.8815 37.6641 24.429C37.2117 23.9765 36.6018 23.7165 35.962 23.7034Z" fill="#E2AC6C"/>
<path d="M35.9521 30.5938C35.7939 30.5938 35.6393 30.6407 35.5078 30.7286C35.3762 30.8165 35.2737 30.9414 35.2132 31.0876C35.1527 31.2338 35.1369 31.3946 35.1677 31.5498C35.1986 31.7049 35.2748 31.8474 35.3867 31.9593C35.4985 32.0711 35.6411 32.1473 35.7962 32.1782C35.9514 32.209 36.1122 32.1932 36.2584 32.1326C36.4045 32.0721 36.5294 31.9696 36.6173 31.838C36.7052 31.7065 36.7521 31.5518 36.7521 31.3936C36.7519 31.1816 36.6675 30.9782 36.5175 30.8283C36.3676 30.6783 36.1642 30.594 35.9521 30.5938Z" fill="#E2AC6C"/>
<path d="M10.5929 38.3017H47.8956C48.1986 38.3015 48.4892 38.1811 48.7036 37.9669C48.9179 37.7528 49.0386 37.4623 49.0392 37.1593V14.5017C49.0387 14.1987 48.918 13.9082 48.7036 13.6941C48.4892 13.4799 48.1986 13.3596 47.8956 13.3594H10.5929C10.2899 13.3596 9.99926 13.4799 9.78486 13.6941C9.57046 13.9082 9.44975 14.1987 9.44922 14.5017V37.1593C9.44978 37.4624 9.5705 37.7528 9.78489 37.9669C9.99929 38.1811 10.2899 38.3015 10.5929 38.3017ZM10.7852 14.6953H47.7032V36.9657H10.7852V14.6953Z" fill="#E2AC6C"/>
<path d="M53.4182 41.0959V12.0969C53.4164 11.2206 53.067 10.3808 52.4467 9.76174C51.8264 9.14271 50.9859 8.79501 50.1096 8.79492H8.3772C7.50089 8.79504 6.66041 9.14275 6.04015 9.76178C5.41988 10.3808 5.0705 11.2206 5.06864 12.0969V41.0447C4.12954 41.0777 3.24105 41.4785 2.59478 42.1607C1.9485 42.8428 1.59623 43.7517 1.61392 44.6912C1.63161 45.6307 2.01784 46.5256 2.68934 47.183C3.36083 47.8403 4.26378 48.2074 5.20346 48.2051H52.7985C53.6958 48.2072 54.5613 47.8724 55.2235 47.2668C55.8857 46.6613 56.2965 45.8292 56.3744 44.9352C56.4524 44.0412 56.1918 43.1506 55.6443 42.4396C55.0969 41.7286 54.3024 41.249 53.4182 41.0959ZM8.3772 10.1309H50.1096C50.6317 10.1306 51.1326 10.3374 51.5025 10.706C51.8723 11.0746 52.0808 11.5748 52.0823 12.0969V41.0412H36.6106C36.0839 41.0414 35.5787 41.2505 35.206 41.6226C34.8332 41.9947 34.6233 42.4995 34.6223 43.0262C34.6216 43.1987 34.5526 43.3639 34.4303 43.4856C34.308 43.6073 34.1425 43.6755 33.97 43.6752H23.4074C23.2349 43.6755 23.0693 43.6073 22.947 43.4856C22.8247 43.364 22.7556 43.1987 22.755 43.0262C22.7539 42.4995 22.544 41.9947 22.1713 41.6226C21.7985 41.2505 21.2934 41.0414 20.7667 41.0412H6.40458V12.0969C6.40605 11.5748 6.61456 11.0746 6.98437 10.706C7.35418 10.3374 7.85509 10.1306 8.3772 10.1309ZM54.3949 46.2079C54.1858 46.4182 53.937 46.585 53.663 46.6985C53.3889 46.812 53.0951 46.87 52.7985 46.8691H5.20346C4.90718 46.8712 4.61342 46.8147 4.33909 46.7027C4.06477 46.5908 3.8153 46.4257 3.60505 46.2169C3.39481 46.0082 3.22795 45.7599 3.11409 45.4863C3.00022 45.2128 2.9416 44.9194 2.9416 44.6231C2.9416 44.3269 3.00022 44.0335 3.11409 43.76C3.22795 43.4864 3.39481 43.2381 3.60505 43.0294C3.8153 42.8206 4.06477 42.6555 4.33909 42.5436C4.61342 42.4316 4.90718 42.3751 5.20346 42.3772H20.7671C20.9396 42.3769 21.1052 42.4451 21.2275 42.5668C21.3498 42.6885 21.4189 42.8537 21.4195 43.0262C21.4205 43.5529 21.6304 44.0577 22.0032 44.4299C22.3759 44.802 22.8811 45.0111 23.4078 45.0112H33.9704C34.4971 45.011 35.0022 44.8019 35.375 44.4298C35.7477 44.0577 35.9576 43.5529 35.9586 43.0262C35.9593 42.8537 36.0283 42.6885 36.1506 42.5668C36.2729 42.4451 36.4385 42.3769 36.611 42.3772H52.7985C53.3945 42.377 53.9662 42.6131 54.3886 43.0337C54.8109 43.4542 55.0494 44.025 55.0517 44.621C55.0527 44.9158 54.9952 45.2079 54.8824 45.4803C54.7697 45.7527 54.604 46 54.3949 46.2079Z" fill="#E2AC6C"/>
<path d="M26.825 22.3945C26.825 22.2174 26.7547 22.0475 26.6294 21.9222C26.5041 21.7969 26.3342 21.7266 26.1571 21.7266H19.582C19.4049 21.7266 19.235 21.7969 19.1097 21.9222C18.9844 22.0475 18.9141 22.2174 18.9141 22.3945C18.9141 22.5717 18.9844 22.7416 19.1097 22.8669C19.235 22.9921 19.4049 23.0625 19.582 23.0625H26.1571C26.3342 23.0625 26.5041 22.9921 26.6294 22.8669C26.7547 22.7416 26.825 22.5717 26.825 22.3945Z" fill="#E2AC6C"/>
<path d="M30.1649 22.3945C30.1649 22.2174 30.0945 22.0475 29.9692 21.9222C29.844 21.7969 29.6741 21.7266 29.4969 21.7266H28.4883C28.3111 21.7266 28.1412 21.7969 28.016 21.9222C27.8907 22.0475 27.8203 22.2174 27.8203 22.3945C27.8203 22.5717 27.8907 22.7416 28.016 22.8669C28.1412 22.9921 28.3111 23.0625 28.4883 23.0625H29.4969C29.6741 23.0625 29.844 22.9921 29.9692 22.8669C30.0945 22.7416 30.1649 22.5717 30.1649 22.3945Z" fill="#E2AC6C"/>
<path d="M20.5907 25.0664H19.582C19.4049 25.0664 19.235 25.1368 19.1097 25.2621C18.9844 25.3873 18.9141 25.5572 18.9141 25.7344C18.9141 25.9115 18.9844 26.0814 19.1097 26.2067C19.235 26.332 19.4049 26.4023 19.582 26.4023H20.5907C20.7678 26.4023 20.9377 26.332 21.063 26.2067C21.1883 26.0814 21.2586 25.9115 21.2586 25.7344C21.2586 25.5572 21.1883 25.3873 21.063 25.2621C20.9377 25.1368 20.7678 25.0664 20.5907 25.0664Z" fill="#E2AC6C"/>
<path d="M27.2704 25.0664H22.9219C22.7447 25.0664 22.5748 25.1368 22.4496 25.2621C22.3243 25.3873 22.2539 25.5572 22.2539 25.7344C22.2539 25.9115 22.3243 26.0814 22.4496 26.2067C22.5748 26.332 22.7447 26.4023 22.9219 26.4023H27.2704C27.4475 26.4023 27.6174 26.332 27.7427 26.2067C27.8679 26.0814 27.9383 25.9115 27.9383 25.7344C27.9383 25.5572 27.8679 25.3873 27.7427 25.2621C27.6174 25.1368 27.4475 25.0664 27.2704 25.0664Z" fill="#E2AC6C"/>
</svg>
