<svg width="65" height="64" viewBox="0 0 65 64" fill="none" xmlns="http://www.w3.org/2000/svg">
<path d="M32.1094 64C25.7804 64 19.5935 62.1232 14.3311 58.607C9.06877 55.0908 4.96725 50.0931 2.54524 44.2459C0.12324 38.3986 -0.510466 31.9645 0.72426 25.7571C1.95899 19.5497 5.00669 13.8479 9.48197 9.3726C13.9573 4.89732 19.6591 1.84961 25.8665 0.614885C32.0739 -0.619841 38.508 0.0138649 44.3553 2.43587C50.2025 4.85787 55.2002 8.95939 58.7164 14.2218C62.2326 19.4841 64.1094 25.671 64.1094 32C64.0975 40.4833 60.7223 48.6157 54.7237 54.6143C48.7251 60.6129 40.5927 63.9881 32.1094 64ZM32.1094 1.12282C26.0025 1.12282 20.0327 2.93374 14.9549 6.32657C9.87721 9.71939 5.9196 14.5418 3.58258 20.1838C1.24556 25.8259 0.63409 32.0343 1.82549 38.0238C3.0169 44.0134 5.95766 49.5152 10.2759 53.8335C14.5942 58.1517 20.096 61.0925 26.0855 62.2839C32.0751 63.4753 38.2835 62.8638 43.9256 60.5268C49.5676 58.1898 54.39 54.2322 57.7828 49.1545C61.1757 44.0767 62.9866 38.1069 62.9866 32C62.9747 23.8145 59.7178 15.9677 53.9297 10.1797C48.1417 4.39164 40.2949 1.1347 32.1094 1.12282Z" fill="#E2AC6C"/>
<path d="M57.3046 26.8472L52.1734 17.3146C52.4965 17.028 52.7472 16.6691 52.9051 16.2671C53.063 15.8652 53.1237 15.4316 53.0822 15.0017C53.0406 14.5719 52.8981 14.1579 52.6661 13.7936C52.4341 13.4294 52.1193 13.1251 51.7474 12.9057C51.3754 12.6862 50.9569 12.5578 50.5258 12.5309C50.0948 12.504 49.6635 12.5794 49.2672 12.7509C48.8709 12.9224 48.5207 13.1852 48.2452 13.5178C47.9698 13.8504 47.7768 14.2434 47.6822 14.6648H34.8036C34.6762 14.0441 34.3386 13.4864 33.8476 13.086C33.3566 12.6855 32.7424 12.4668 32.1089 12.4668C31.4753 12.4668 30.8611 12.6855 30.3701 13.086C29.8792 13.4864 29.5415 14.0441 29.4141 14.6648H16.5018C16.4115 14.2377 16.2207 13.8383 15.9455 13.4995C15.6702 13.1607 15.3182 12.8924 14.9187 12.7165C14.5192 12.5407 14.0835 12.4624 13.6478 12.4883C13.212 12.5141 12.7887 12.6433 12.4127 12.8651C12.0368 13.0869 11.719 13.395 11.4857 13.7639C11.2523 14.1328 11.1102 14.552 11.0709 14.9867C11.0316 15.4215 11.0963 15.8593 11.2597 16.2641C11.4231 16.6689 11.6805 17.029 12.0106 17.3146L6.91307 26.8472C6.87789 26.9334 6.85521 27.0241 6.8457 27.1167C6.91795 28.9161 7.68358 30.6177 8.98224 31.8653C10.2809 33.1128 12.0119 33.8096 13.8127 33.8096C15.6135 33.8096 17.3445 33.1128 18.6432 31.8653C19.9419 30.6177 20.7075 28.9161 20.7797 27.1167C20.7702 27.0241 20.7475 26.9334 20.7124 26.8472L15.5699 17.3146C16.0468 16.9278 16.3759 16.3885 16.5018 15.7876H29.4141C29.5127 16.2415 29.7237 16.6634 30.0278 17.0146C30.3319 17.3658 30.7193 17.6349 31.1545 17.7974L26.9889 45.2725C25.9387 46.4173 25.2989 47.8787 25.1699 49.4269H23.205C23.0726 49.4251 22.9443 49.4732 22.8457 49.5616L19.4773 52.4247C19.3896 52.4983 19.3265 52.5968 19.2964 52.7072C19.2663 52.8175 19.2707 52.9345 19.3089 53.0423C19.3481 53.1508 19.4198 53.2446 19.5142 53.3109C19.6086 53.3772 19.7212 53.4128 19.8366 53.4128H44.3811C44.4965 53.4128 44.6091 53.3772 44.7035 53.3109C44.7979 53.2446 44.8696 53.1508 44.9089 53.0423C44.947 52.9345 44.9514 52.8175 44.9213 52.7072C44.8912 52.5968 44.8281 52.4983 44.7404 52.4247L41.372 49.5616C41.2734 49.4732 41.1451 49.4251 41.0127 49.4269H39.0478C38.9188 47.8787 38.279 46.4173 37.2289 45.2725L33.0632 17.7974C33.4984 17.6349 33.8859 17.3658 34.1899 17.0146C34.494 16.6634 34.705 16.2415 34.8036 15.7876H47.7159C47.8419 16.3885 48.1709 16.9278 48.6478 17.3146L43.5053 26.8472C43.4702 26.9334 43.4475 27.0241 43.438 27.1167C43.5102 28.9161 44.2758 30.6177 45.5745 31.8653C46.8732 33.1128 48.6042 33.8096 50.405 33.8096C52.2058 33.8096 53.9368 33.1128 55.2355 31.8653C56.5341 30.6177 57.2998 28.9161 57.372 27.1167C57.3625 27.0241 57.3398 26.9334 57.3046 26.8472ZM13.8071 13.5981C14.1291 13.5981 14.4439 13.6936 14.7116 13.8725C14.9793 14.0514 15.188 14.3056 15.3112 14.6031C15.4345 14.9006 15.4667 15.228 15.4039 15.5438C15.3411 15.8596 15.186 16.1497 14.9583 16.3774C14.7306 16.6051 14.4405 16.7601 14.1247 16.8229C13.8089 16.8858 13.4816 16.8535 13.1841 16.7303C12.8866 16.6071 12.6323 16.3984 12.4534 16.1307C12.2745 15.8629 12.179 15.5482 12.179 15.2262C12.179 14.7944 12.3506 14.3803 12.6559 14.0749C12.9612 13.7696 13.3753 13.5981 13.8071 13.5981ZM13.8071 32.9553C12.3608 32.9481 10.9687 32.4043 9.90041 31.4294C8.83211 30.4544 8.1637 29.1177 8.02465 27.6781H19.6008C19.4615 29.1196 18.7915 30.4579 17.7209 31.4331C16.6502 32.4083 15.2553 32.9508 13.8071 32.9553ZM19.2752 26.5553H8.35026L13.0211 17.8423C13.2709 17.927 13.5322 17.9725 13.7959 17.977C14.0585 17.9706 14.319 17.9291 14.5706 17.8535L19.2752 26.5553ZM31.5475 43.0493C30.3862 43.15 29.2678 43.5357 28.2913 44.1721L31.5475 22.7041V43.0493ZM32.6703 22.6928L35.9264 44.1609C34.9499 43.5245 33.8315 43.1388 32.6703 43.0381V22.6928ZM42.8541 52.29H21.3636L23.4183 50.5497H40.7994L42.8541 52.29ZM26.3264 49.4269C26.4539 47.9812 27.1183 46.6358 28.1887 45.6557C29.259 44.6756 30.6576 44.132 32.1089 44.132C33.5601 44.132 34.9587 44.6756 36.0291 45.6557C37.0994 46.6358 37.7638 47.9812 37.8913 49.4269H26.3264ZM32.1089 16.8655C31.7869 16.8655 31.4721 16.77 31.2043 16.5911C30.9366 16.4122 30.7279 16.1579 30.6047 15.8604C30.4815 15.5629 30.4492 15.2356 30.5121 14.9198C30.5749 14.604 30.7299 14.3139 30.9576 14.0862C31.1853 13.8585 31.4754 13.7034 31.7912 13.6406C32.107 13.5778 32.4344 13.61 32.7319 13.7332C33.0294 13.8565 33.2837 14.0651 33.4625 14.3329C33.6414 14.6006 33.7369 14.9154 33.7369 15.2374C33.734 15.6672 33.5611 16.0785 33.2561 16.3814C32.9511 16.6843 32.5387 16.8542 32.1089 16.8542V16.8655ZM50.4106 13.6093C50.7326 13.6093 51.0474 13.7048 51.3151 13.8837C51.5828 14.0626 51.7915 14.3169 51.9147 14.6144C52.038 14.9118 52.0702 15.2392 52.0074 15.555C51.9446 15.8708 51.7895 16.1609 51.5618 16.3886C51.3341 16.6163 51.044 16.7714 50.7282 16.8342C50.4124 16.897 50.0851 16.8648 49.7876 16.7415C49.4901 16.6183 49.2358 16.4096 49.0569 16.1419C48.878 15.8742 48.7825 15.5594 48.7825 15.2374C48.7811 15.0226 48.8221 14.8097 48.9032 14.6109C48.9844 14.4121 49.1041 14.2313 49.2554 14.0789C49.4067 13.9265 49.5867 13.8056 49.785 13.7231C49.9832 13.6406 50.1959 13.5981 50.4106 13.5981V13.6093ZM50.4106 17.9883C50.6743 17.9837 50.9356 17.9382 51.1853 17.8535L55.8674 26.5665H44.9425L49.6359 17.8648C49.888 17.9365 50.1485 17.9743 50.4106 17.977V17.9883ZM50.4106 32.9665C48.9624 32.9621 47.5675 32.4196 46.4968 31.4444C45.4262 30.4691 44.7562 29.1308 44.6169 27.6893H56.1931C56.0514 29.1269 55.3819 30.4609 54.3138 31.4335C53.2458 32.4062 51.8551 32.9483 50.4106 32.9553V32.9665Z" fill="#E2AC6C"/>
</svg>
