<svg width="30" height="30" viewBox="0 0 30 30" fill="none" xmlns="http://www.w3.org/2000/svg">
<g clip-path="url(#clip0_21_10526)">
<path d="M15 30C23.2843 30 30 23.2843 30 15C30 6.71573 23.2843 0 15 0C6.71573 0 0 6.71573 0 15C0 23.2843 6.71573 30 15 30Z" fill="#007AB9"/>
<path d="M22 16.5827V22H18.9987V16.9458C18.9987 15.6767 18.5654 14.81 17.4787 14.81C16.6494 14.81 16.1567 15.3935 15.9392 15.9585C15.8602 16.1604 15.8398 16.4408 15.8398 16.7239V21.9998H12.8383C12.8383 21.9998 12.8786 13.4396 12.8383 12.5535H15.84V13.8921C15.834 13.9026 15.8255 13.9129 15.8201 13.923H15.84V13.8921C16.2389 13.2498 16.9502 12.3316 18.545 12.3316C20.5196 12.3316 22 13.6817 22 16.5827ZM9.69841 8C8.67171 8 8 8.70527 8 9.63189C8 10.5388 8.65223 11.2645 9.65901 11.2645H9.67849C10.7253 11.2645 11.3762 10.5388 11.3762 9.63189C11.3563 8.70527 10.7253 8 9.69841 8ZM8.17839 22H11.1788V12.5535H8.17839V22Z" fill="#F1F2F2"/>
</g>
<defs>
<clipPath id="clip0_21_10526">
<rect width="30" height="30" fill="white"/>
</clipPath>
</defs>
</svg>
