<svg width="54" height="54" viewBox="0 0 54 54" fill="none" xmlns="http://www.w3.org/2000/svg">
<path d="M51.4063 46.8439L51.3939 46.8562L51.3825 46.8694L49.2341 49.3407C46.856 51.7189 43.7076 53 40.303 53C31.939 53 22.1087 47.4329 14.3379 39.6621C6.56712 31.8913 1 22.061 1 13.697C1 10.2905 2.2824 7.14066 4.60853 4.82107L7.18866 2.5706L7.2018 2.55914L7.2141 2.5468C9.14696 0.607937 12.7767 0.547754 14.8316 2.57594L19.1375 8.16551L19.1577 8.19169L19.1811 8.21498C21.2002 10.222 21.2123 13.6742 19.0851 15.8013L19.0851 15.8013L19.0808 15.8057L15.7948 19.1734L15.5623 19.4117L15.6925 19.7181C19.3105 28.2326 26.0257 34.9592 34.28 38.3214L34.5832 38.445L34.8177 38.2163L38.2008 34.9171L38.2009 34.9171L38.2046 34.9134C40.3282 32.7979 43.7773 32.8001 45.8965 34.9193L45.9198 34.9427L45.9461 34.9627L51.3222 39.0795C52.446 40.1995 53 41.5595 53 42.9972C53 44.4501 52.4344 45.8158 51.4063 46.8439ZM13.9036 3.34073L13.9027 3.33975L13.9026 3.33976C13.133 2.57573 12.0926 2.19729 11.0492 2.19729C9.96773 2.19729 8.86512 2.6022 8.02497 3.43552L5.44261 5.68822L5.42988 5.69931L5.41794 5.71125C3.36221 7.76465 2.20833 10.6238 2.20833 13.697C2.20833 21.7987 7.76376 31.3183 15.2227 38.7773C22.6817 46.2362 32.2013 51.7917 40.303 51.7917C43.3781 51.7917 46.2367 50.6365 48.3397 48.5289L48.3518 48.5168L48.363 48.5039L50.5142 46.0318C52.1976 44.3283 52.2035 41.6538 50.5521 40.0024L50.5287 39.9791L50.5025 39.959L45.1249 35.8411C43.3077 34.076 40.6567 34.1672 39.0548 35.7716L39.0353 35.791L39.0286 35.7995L35.1515 39.5799C34.9836 39.743 34.7345 39.7947 34.5156 39.7104L34.5143 39.71C25.4348 36.2462 18.0621 28.8807 14.2935 19.4974L14.2934 19.4972C14.2042 19.2755 14.2544 19.0213 14.4221 18.8487C14.4221 18.8487 14.4221 18.8486 14.4222 18.8486L18.2223 14.9513C19.8704 13.2984 19.8794 10.6317 18.2522 8.97911L13.9451 3.38812L13.5733 3.67453L13.9049 3.34196L13.9036 3.34073ZM52.3958 24.2917C52.0625 24.2917 51.7917 24.0209 51.7917 23.6875C51.7917 11.8441 42.1559 2.20833 30.3125 2.20833C29.9791 2.20833 29.7083 1.93752 29.7083 1.60417C29.7083 1.27081 29.9791 1 30.3125 1C42.8226 1 53 11.1774 53 23.6875C53 24.0209 52.7292 24.2917 52.3958 24.2917ZM30.3125 9.83333C37.951 9.83333 44.1667 16.049 44.1667 23.6875C44.1667 24.0209 43.8959 24.2917 43.5625 24.2917C43.2291 24.2917 42.9583 24.0209 42.9583 23.6875C42.9583 16.7135 37.2865 11.0417 30.3125 11.0417C29.9791 11.0417 29.7083 10.7709 29.7083 10.4375C29.7083 10.1041 29.9791 9.83333 30.3125 9.83333Z" fill="#E2AC6C" stroke="#E2AC6C"/>
</svg>
