<svg width="52" height="52" viewBox="0 0 52 52" fill="none" xmlns="http://www.w3.org/2000/svg">
<path d="M28.1684 21.6667C28.1684 22.8627 27.1977 23.8333 26.0017 23.8333C24.8057 23.8333 23.8351 22.8627 23.8351 21.6667C23.8351 20.4707 24.8057 19.5 26.0017 19.5C27.1977 19.5 28.1684 20.4707 28.1684 21.6667ZM36.8351 19.5C35.6391 19.5 34.6684 20.4707 34.6684 21.6667C34.6684 22.8627 35.6391 23.8333 36.8351 23.8333C38.0311 23.8333 39.0017 22.8627 39.0017 21.6667C39.0017 20.4707 38.0311 19.5 36.8351 19.5ZM15.1684 19.5C13.9724 19.5 13.0017 20.4707 13.0017 21.6667C13.0017 22.8627 13.9724 23.8333 15.1684 23.8333C16.3644 23.8333 17.3351 22.8627 17.3351 21.6667C17.3351 20.4707 16.3644 19.5 15.1684 19.5ZM52.0017 7.58333V35.75C52.0017 39.9317 48.6001 43.3333 44.4184 43.3333H36.7657L28.1316 50.4725C27.5357 51.0033 26.7752 51.2698 26.0126 51.2698C25.2412 51.2698 24.4612 50.9968 23.8437 50.4487L15.3981 43.3333H7.58724C3.40557 43.3333 0.00390728 39.9317 0.00390728 35.75V7.58333C0.00174062 3.40167 3.40341 0 7.58507 0H44.4184C48.6001 0 52.0017 3.40167 52.0017 7.58333ZM49.8351 7.58333C49.8351 4.59767 47.4062 2.16667 44.4184 2.16667H7.58507C4.59724 2.16667 2.16841 4.59767 2.16841 7.58333V35.75C2.16841 38.7357 4.59724 41.1667 7.58507 41.1667H15.7924C16.0481 41.1667 16.2951 41.2577 16.4901 41.4223L25.2607 48.8107C25.6919 49.1963 26.3116 49.192 26.7211 48.828L35.6867 41.4158C35.8817 41.2555 36.1244 41.1667 36.3757 41.1667H44.4184C47.4062 41.1667 49.8351 38.7357 49.8351 35.75V7.58333Z" fill="#E2AC6C"/>
</svg>
