<svg width="54" height="53" viewBox="0 0 54 53" fill="none" xmlns="http://www.w3.org/2000/svg">
<path d="M47.9792 8.83223H40.25V5.52014C40.25 2.47523 37.7722 0 34.7292 0H6.02083C2.97775 0 0.5 2.47523 0.5 5.52014V40.5267C0.5 41.8692 1.23537 43.1013 2.42125 43.735C2.96229 44.0242 3.55192 44.1656 4.14154 44.1656C4.846 44.1656 5.54825 43.9602 6.15775 43.5561L13.75 38.4953V46.3692H38.8124L47.8422 52.3906C48.4517 52.7969 49.154 53 49.8585 53C50.4481 53 51.0377 52.8587 51.5787 52.5694C52.7646 51.9357 53.5 50.7036 53.5 49.3611V14.3524C53.5 11.3075 51.0222 8.83223 47.9792 8.83223ZM4.93212 41.7212C4.48825 42.0215 3.93837 42.0458 3.46358 41.7897C2.991 41.538 2.70833 41.0654 2.70833 40.5289V5.52014C2.70833 3.69408 4.19454 2.20806 6.02083 2.20806H34.7292C36.5555 2.20806 38.0417 3.69408 38.0417 5.52014V35.3289H14.5207L4.93212 41.7212ZM51.2917 49.3611C51.2917 49.8977 51.009 50.3702 50.5364 50.6219C50.0616 50.8759 49.5162 50.8516 49.0679 50.5535L39.4815 44.1611H15.9583V37.537H40.25V11.0403H47.9792C49.8055 11.0403 51.2917 12.5263 51.2917 14.3524V49.3611Z" fill="#E2AC6C"/>
</svg>
